<?xml version="1.0" standalone="no"?>
<!DOCTYPE svg PUBLIC "-//W3C//DTD SVG 20010904//EN"
 "http://www.w3.org/TR/2001/REC-SVG-20010904/DTD/svg10.dtd">
<svg version="1.0" xmlns="http://www.w3.org/2000/svg"
 width="160.000000pt" height="70.000000pt" viewBox="0 0 160.000000 70.000000"
 preserveAspectRatio="xMidYMid meet">
<metadata>
Created by potrace 1.10, written by Peter Selinger 2001-2011
</metadata>
<g transform="translate(0.000000,70.000000) scale(0.100000,-0.100000)"
fill="#000000" stroke="none">
<path d="M665 693 c-334 -40 -576 -141 -642 -267 -20 -38 -20 -114 0 -153 71
-137 354 -244 695 -262 268 -15 504 8 677 64 71 24 208 85 202 91 -1 2 -43
-12 -93 -31 -481 -181 -1290 -71 -1389 189 -67 175 233 337 675 366 l115 7
-105 0 c-58 0 -118 -2 -135 -4z m-571 -411 c9 -18 26 -42 37 -53 10 -10 14
-19 8 -19 -19 0 -124 118 -124 140 0 3 11 21 25 38 l25 32 6 -53 c3 -28 14
-67 23 -85z"/>
<path d="M316 508 c-10 -45 -46 -252 -46 -265 0 -8 13 -13 35 -13 39 0 36 -6
57 120 l13 75 68 -98 c62 -89 71 -97 100 -97 l32 0 25 150 26 150 -37 0 -37 0
-11 -67 c-23 -128 -15 -125 -84 -27 -58 82 -66 89 -100 92 -31 3 -37 0 -41
-20z m72 -40 c17 -17 15 -28 -6 -28 -10 0 -23 -5 -30 -12 -9 -9 -12 -6 -12 13
0 39 23 52 48 27z m164 -148 c-5 -37 -19 -47 -39 -27 -18 17 -10 35 21 47 11
5 21 9 22 9 0 1 -1 -13 -4 -29z"/>
<path d="M701 393 c-13 -76 -26 -143 -28 -150 -4 -9 7 -13 36 -13 23 0 41 4
41 8 0 4 11 71 25 148 14 76 25 140 25 142 0 1 -17 2 -38 2 l-37 0 -24 -137z"/>
<path d="M898 380 l-86 -150 43 0 c38 0 44 3 55 30 12 30 14 30 86 30 l74 0 0
-30 c0 -29 2 -30 46 -30 33 0 45 4 41 13 -4 11 -39 140 -67 245 l-11 42 -47 0
-47 -1 -87 -149z m152 -32 c0 -5 -20 -8 -45 -8 -25 0 -45 2 -45 5 0 3 14 31
32 62 l32 56 12 -54 c7 -30 13 -57 14 -61z"/>
<path d="M1251 393 c-13 -76 -26 -144 -28 -150 -4 -10 17 -13 87 -13 111 0
156 17 176 66 19 45 18 51 -11 79 l-24 25 24 25 c32 31 32 58 -1 84 -22 18
-41 21 -113 21 l-87 0 -23 -137z m153 81 c38 -14 3 -64 -45 -64 -30 0 -33 7
-23 48 6 22 34 29 68 16z m5 -128 c22 -27 -3 -54 -54 -58 -41 -3 -45 -1 -45
19 0 42 11 53 50 53 21 0 43 -6 49 -14z"/>
</g>
</svg>
