<?xml version="1.0" standalone="no"?>
<!DOCTYPE svg PUBLIC "-//W3C//DTD SVG 20010904//EN"
 "http://www.w3.org/TR/2001/REC-SVG-20010904/DTD/svg10.dtd">
<svg version="1.0" xmlns="http://www.w3.org/2000/svg"
 width="512.000000pt" height="512.000000pt" viewBox="0 0 512.000000 512.000000"
 preserveAspectRatio="xMidYMid meet">

<g transform="translate(0.000000,512.000000) scale(0.100000,-0.100000)"
fill="#000000" stroke="none">
<path d="M3020 4387 c0 -598 2 -727 14 -736 10 -8 248 -10 881 -9 l869 3 -873
730 c-480 402 -877 732 -882 733 -5 2 -9 -291 -9 -721z"/>
<path d="M389 2627 c-73 -48 -69 -3 -69 -867 0 -866 -4 -822 70 -865 35 -20
44 -20 1755 -20 1626 0 1722 1 1752 18 71 38 68 -4 71 850 2 494 -1 781 -8
806 -5 20 -24 50 -40 66 l-31 30 -1733 3 -1733 2 -34 -23z m1103 -499 c87 -19
153 -85 172 -175 4 -17 4 -33 -1 -36 -4 -3 -55 -6 -113 -8 -101 -4 -105 -3
-108 17 -12 82 -182 100 -182 19 0 -31 11 -37 152 -73 139 -37 183 -57 230
-110 64 -71 69 -172 14 -266 -51 -88 -143 -127 -298 -127 -117 0 -201 21 -252
63 -40 33 -81 104 -91 160 l-7 35 63 6 c34 4 85 7 114 7 51 0 53 -1 59 -31 3
-17 19 -44 35 -60 58 -57 181 -29 181 41 0 43 -32 66 -123 90 -114 29 -158 46
-210 81 -136 90 -106 290 53 357 67 28 210 33 312 10z m829 -8 c80 -24 138
-66 178 -128 77 -121 81 -325 8 -456 l-26 -47 46 -29 c26 -17 51 -30 55 -30 5
0 -8 -31 -27 -70 l-35 -69 -51 30 c-29 17 -66 41 -83 54 -23 17 -35 21 -48 14
-34 -19 -175 -30 -244 -19 -101 16 -157 45 -217 109 -74 81 -92 136 -92 281 0
106 3 120 29 178 40 85 116 155 199 181 85 27 223 28 308 1z m589 -270 l0
-280 183 -2 182 -3 3 -92 3 -93 -301 0 -300 0 0 375 0 375 115 0 115 0 0 -280z"/>
<path d="M2105 1950 c-27 -11 -61 -49 -74 -83 -6 -16 -11 -66 -11 -112 0 -140
37 -198 134 -211 57 -8 60 7 6 31 -22 10 -40 20 -40 21 0 2 7 22 16 44 20 49
34 50 104 6 68 -43 72 -38 78 90 5 110 -16 171 -70 204 -34 21 -105 26 -143
10z"/>
</g>
</svg>
